<svg viewBox="0 0 88 88" xmlns="http://www.w3.org/2000/svg">
  <!-- Shadow -->
  <ellipse cx="44" cy="79.2" rx="28.6" ry="5.28" fill="#6366F1" opacity="0.2"/>
  <!-- Body -->
  <circle cx="44" cy="44" r="26.4" fill="#818CF8"/>
  <!-- Left Ear/Antenna -->
  <path d="M24.2 24.2 Q21.12 13.2 29.92 6.6" fill="none" stroke="#818CF8" stroke-width="7.04" stroke-linecap="round"/>
  <circle cx="29.92" cy="6.6" r="4.4" fill="#EF4444">
    <animate attributeName="opacity" values="1;0.5;1" dur="2s" repeatCount="indefinite"/>
  </circle>
  <!-- Right Ear/Antenna -->
  <path d="M63.8 24.2 Q66.88 13.2 58.08 6.6" fill="none" stroke="#818CF8" stroke-width="7.04" stroke-linecap="round"/>
  <circle cx="58.08" cy="6.6" r="4.4" fill="#EF4444">
    <animate attributeName="opacity" values="1;0.5;1" dur="2s" repeatCount="indefinite" begin="1s"/>
  </circle>
  <!-- Camera Lens/Eye -->
  <circle cx="44" cy="39.6" r="11.44" fill="#1E1B4B"/>
  <circle cx="44" cy="39.6" r="9.24" fill="#312E81"/>
  <circle cx="44" cy="39.6" r="7.04" fill="#1E1B4B"/>
  <circle cx="41.36" cy="36.96" r="3.08" fill="white" opacity="0.7"/>
  <!-- Smile -->
  <path d="M35.2 50.6 Q44 56.32 52.8 50.6" fill="none" stroke="white" stroke-width="2.2" stroke-linecap="round"/>
  <!-- Blush -->
  <circle cx="30.8" cy="48.4" r="4.4" fill="#FCA5A5" opacity="0.6"/>
  <circle cx="57.2" cy="48.4" r="4.4" fill="#FCA5A5" opacity="0.6"/>
  <!-- Arms -->
  <path d="M22 44 Q13.2 41.8 13.2 52.8" fill="none" stroke="#818CF8" stroke-width="7.04" stroke-linecap="round"/>
  <path d="M66 44 Q74.8 46.2 74.8 35.2" fill="none" stroke="#818CF8" stroke-width="7.04" stroke-linecap="round"/>
  <!-- Legs -->
  <path d="M35.2 70.4 L35.2 81.4" fill="none" stroke="#818CF8" stroke-width="7.04" stroke-linecap="round"/>
  <path d="M52.8 70.4 L52.8 81.4" fill="none" stroke="#818CF8" stroke-width="7.04" stroke-linecap="round"/>
</svg>